# xmcd
#
# Track frame offsets:
#	150
#	14682
#	24949
#	35414
#	47035
#	59902
#	73201
#	84553
#	99219
#	111439
#	121591
#	131740
#	141672
#	154114
#	166288
#	180413
#	191902
#	203798
#
# Disc length: 2896 seconds
#
# Revision: 1
# Processed by: cddbd v1.5.2PL0 Copyright (c) Steve Scherf et al.
# Submitted via: audiograbber 1.83.01
#
DISCID=060b4e12
DTITLE=Various Artist - 18 heart-breaking country love songs
DYEAR=1900
DGENRE=
TTITLE0=Willie nelson_Will you remember mine
TTITLE1=Jim Reeves_Just call me lonesome
TTITLE2=Patsy Cline_Lovesick blues
TTITLE3=Don Gibson_I can't stop loving you
TTITLE4=Faron Young_It's four in the morning
TTITLE5=Lefty Frizzell_If you've got the money
TTITLE6=Hank Snow_A fool such as I
TTITLE7=Johnny Paycheck_A good year for the roses
TTITLE8=Hank Williams_Your cheatin' heart
TTITLE9=Porter Wagoner_The green green grass of home
TTITLE10=Jim Ed Brown_Pop  a top
TTITLE11=Webb Pierce_There stands the glass
TTITLE12=Charlie Rich_Behind closed doors
TTITLE13=Eddy Arnold_I'll hold you in my heart
TTITLE14=Lynn Anderson_Cry
TTITLE15=Freddy Fender_Before the next teardrop falls
TTITLE16=Skeeter Davis_The end of the world
TTITLE17=Ray Price_Heartaches by the number
EXTD=
EXTT0=
EXTT1=
EXTT2=
EXTT3=
EXTT4=
EXTT5=
EXTT6=
EXTT7=
EXTT8=
EXTT9=
EXTT10=
EXTT11=
EXTT12=
EXTT13=
EXTT14=
EXTT15=
EXTT16=
EXTT17=
PLAYORDER=
